<svg xmlns="http://www.w3.org/2000/svg" xmlns:xlink="http://www.w3.org/1999/xlink" viewBox="0,0,256,256" width="75px" height="75px"><g fill="#0f63d2" fill-rule="nonzero" stroke="none" stroke-width="1" stroke-linecap="butt" stroke-linejoin="miter" stroke-miterlimit="10" stroke-dasharray="" stroke-dashoffset="0" font-family="none" font-weight="none" font-size="none" text-anchor="none" style="mix-blend-mode: normal"><g transform="scale(5.12,5.12)"><path d="M25.53516,9.0332c-9.106,0 -16.51367,7.40962 -16.51367,16.51562c0,9.106 7.40767,16.51367 16.51367,16.51367c9.106,0 16.51563,-7.40767 16.51563,-16.51367c0,-9.106 -7.40962,-16.51562 -16.51562,-16.51562zM25.53516,10.03711c8.463,0 15.51367,6.99872 15.51367,15.51172c0,7.89804 -6.25262,14.64587 -14.00391,15.43164l-0.0293,-11.99414l2.98047,0.0293l1.02344,-3.00977h-4.00391v-3.00977c0,-1 0.98733,-1.95703 1.98633,-1.95703h0.99219l0.03125,-3.00977l-1.02344,-0.03125c-1.926,0 -3.38514,0.7367 -4.24414,1.5957c-0.859,0.859 -1.74609,2.43878 -1.74609,4.42578c0,1.205 -0.0293,1.98633 -0.0293,1.98633h-3.00195v3.04102l3.03125,-0.03125v11.81445c-7.32715,-1.23869 -12.98828,-7.72702 -12.98828,-15.28125c0,-8.513 6.99772,-15.51172 15.51172,-15.51172z"></path></g></g></svg>